<mxfile host="app.diagrams.net" agent="Mozilla/5.0 (Windows NT 10.0; Win64; x64) AppleWebKit/537.36 (KHTML, like Gecko) Chrome/128.0.0.0 Safari/537.36 Edg/128.0.0.0" version="24.7.7">
  <diagram name="Seite-1" id="QBMekcYSgEYy4Dey6hCh">
    <mxGraphModel dx="570" dy="316" grid="1" gridSize="10" guides="1" tooltips="1" connect="1" arrows="1" fold="1" page="1" pageScale="1" pageWidth="827" pageHeight="1169" math="0" shadow="0">
      <root>
        <mxCell id="0" />
        <mxCell id="1" parent="0" />
        <mxCell id="gMbiwd17Ytz5BKYA6aA2-25" value="" style="rounded=0;whiteSpace=wrap;html=1;strokeColor=#00FF00;" vertex="1" parent="1">
          <mxGeometry x="80" y="115" width="107.5" height="105" as="geometry" />
        </mxCell>
        <mxCell id="gMbiwd17Ytz5BKYA6aA2-8" value="1" style="text;html=1;align=center;verticalAlign=middle;whiteSpace=wrap;rounded=0;" vertex="1" parent="1">
          <mxGeometry x="20" y="30" width="60" height="30" as="geometry" />
        </mxCell>
        <mxCell id="gMbiwd17Ytz5BKYA6aA2-9" value="2" style="text;html=1;align=center;verticalAlign=middle;whiteSpace=wrap;rounded=0;" vertex="1" parent="1">
          <mxGeometry x="20" y="70" width="60" height="30" as="geometry" />
        </mxCell>
        <mxCell id="gMbiwd17Ytz5BKYA6aA2-10" value="3" style="text;html=1;align=center;verticalAlign=middle;whiteSpace=wrap;rounded=0;" vertex="1" parent="1">
          <mxGeometry x="20" y="110" width="60" height="30" as="geometry" />
        </mxCell>
        <mxCell id="gMbiwd17Ytz5BKYA6aA2-11" value="4" style="text;html=1;align=center;verticalAlign=middle;whiteSpace=wrap;rounded=0;" vertex="1" parent="1">
          <mxGeometry x="20" y="150" width="60" height="30" as="geometry" />
        </mxCell>
        <mxCell id="gMbiwd17Ytz5BKYA6aA2-12" value="&lt;b&gt;int &lt;/b&gt;beforeEach" style="text;html=1;align=left;verticalAlign=middle;resizable=0;points=[];autosize=1;strokeColor=none;fillColor=none;" vertex="1" parent="1">
          <mxGeometry x="85" y="30" width="100" height="30" as="geometry" />
        </mxCell>
        <mxCell id="gMbiwd17Ytz5BKYA6aA2-13" value="&lt;b&gt;int &lt;/b&gt;beforeAll" style="text;html=1;align=left;verticalAlign=middle;resizable=0;points=[];autosize=1;strokeColor=none;fillColor=none;" vertex="1" parent="1">
          <mxGeometry x="85" y="70" width="90" height="30" as="geometry" />
        </mxCell>
        <mxCell id="gMbiwd17Ytz5BKYA6aA2-14" value="&lt;b&gt;int &lt;/b&gt;afterEach" style="text;html=1;align=left;verticalAlign=middle;resizable=0;points=[];autosize=1;strokeColor=none;fillColor=none;" vertex="1" parent="1">
          <mxGeometry x="85" y="110" width="90" height="30" as="geometry" />
        </mxCell>
        <mxCell id="gMbiwd17Ytz5BKYA6aA2-15" value="&lt;b&gt;int &lt;/b&gt;afterAll" style="text;html=1;align=left;verticalAlign=middle;resizable=0;points=[];autosize=1;strokeColor=none;fillColor=none;" vertex="1" parent="1">
          <mxGeometry x="85" y="150" width="80" height="30" as="geometry" />
        </mxCell>
        <mxCell id="gMbiwd17Ytz5BKYA6aA2-16" value="5" style="text;html=1;align=center;verticalAlign=middle;whiteSpace=wrap;rounded=0;" vertex="1" parent="1">
          <mxGeometry x="20" y="190" width="60" height="30" as="geometry" />
        </mxCell>
        <mxCell id="gMbiwd17Ytz5BKYA6aA2-26" value="" style="rounded=0;whiteSpace=wrap;html=1;strokeColor=#FF0000;fillColor=none;" vertex="1" parent="1">
          <mxGeometry x="65" y="30" width="160" height="297.5" as="geometry" />
        </mxCell>
        <mxCell id="gMbiwd17Ytz5BKYA6aA2-17" value="&lt;b&gt;String &lt;/b&gt;testName" style="text;html=1;align=left;verticalAlign=middle;resizable=0;points=[];autosize=1;strokeColor=none;fillColor=none;" vertex="1" parent="1">
          <mxGeometry x="85" y="190" width="110" height="30" as="geometry" />
        </mxCell>
        <mxCell id="gMbiwd17Ytz5BKYA6aA2-18" value="6" style="text;html=1;align=center;verticalAlign=middle;whiteSpace=wrap;rounded=0;" vertex="1" parent="1">
          <mxGeometry x="20" y="230" width="60" height="30" as="geometry" />
        </mxCell>
        <mxCell id="gMbiwd17Ytz5BKYA6aA2-19" value="&lt;b&gt;void &lt;/b&gt;resetCounters() {" style="text;html=1;align=left;verticalAlign=middle;resizable=0;points=[];autosize=1;strokeColor=none;fillColor=none;" vertex="1" parent="1">
          <mxGeometry x="85" y="230" width="140" height="30" as="geometry" />
        </mxCell>
        <mxCell id="gMbiwd17Ytz5BKYA6aA2-20" value="7" style="text;html=1;align=center;verticalAlign=middle;whiteSpace=wrap;rounded=0;" vertex="1" parent="1">
          <mxGeometry x="20" y="260" width="60" height="30" as="geometry" />
        </mxCell>
        <mxCell id="gMbiwd17Ytz5BKYA6aA2-21" value="// code" style="text;html=1;align=left;verticalAlign=middle;resizable=0;points=[];autosize=1;strokeColor=none;fillColor=none;" vertex="1" parent="1">
          <mxGeometry x="85" y="260" width="60" height="30" as="geometry" />
        </mxCell>
        <mxCell id="gMbiwd17Ytz5BKYA6aA2-22" value="8" style="text;html=1;align=center;verticalAlign=middle;whiteSpace=wrap;rounded=0;" vertex="1" parent="1">
          <mxGeometry x="20" y="290" width="60" height="30" as="geometry" />
        </mxCell>
        <mxCell id="gMbiwd17Ytz5BKYA6aA2-23" value="}" style="text;html=1;align=left;verticalAlign=middle;resizable=0;points=[];autosize=1;strokeColor=none;fillColor=none;" vertex="1" parent="1">
          <mxGeometry x="85" y="290" width="30" height="30" as="geometry" />
        </mxCell>
        <mxCell id="gMbiwd17Ytz5BKYA6aA2-24" value="" style="rounded=0;whiteSpace=wrap;html=1;fillColor=none;" vertex="1" parent="1">
          <mxGeometry x="85" y="152.5" width="70" height="30" as="geometry" />
        </mxCell>
      </root>
    </mxGraphModel>
  </diagram>
</mxfile>
